<?xml version="1.0" encoding="UTF-8" ?>
<svg version="1.1" width="32" height="48" xmlns="http://www.w3.org/2000/svg" shape-rendering="crispEdges">
<rect x="10" y="6" width="1" height="1" fill="#181425" />
<rect x="11" y="6" width="1" height="1" fill="#181425" />
<rect x="12" y="6" width="1" height="1" fill="#181425" />
<rect x="13" y="6" width="1" height="1" fill="#181425" />
<rect x="24" y="6" width="1" height="1" fill="#181425" />
<rect x="25" y="6" width="1" height="1" fill="#181425" />
<rect x="26" y="6" width="1" height="1" fill="#181425" />
<rect x="27" y="6" width="1" height="1" fill="#181425" />
<rect x="9" y="7" width="1" height="1" fill="#181425" />
<rect x="10" y="7" width="1" height="1" fill="#FEE761" />
<rect x="11" y="7" width="1" height="1" fill="#FEE761" />
<rect x="12" y="7" width="1" height="1" fill="#FEE761" />
<rect x="13" y="7" width="1" height="1" fill="#FFFFFF" />
<rect x="14" y="7" width="1" height="1" fill="#181425" />
<rect x="23" y="7" width="1" height="1" fill="#181425" />
<rect x="24" y="7" width="1" height="1" fill="#8B9BB4" />
<rect x="25" y="7" width="1" height="1" fill="#8B9BB4" />
<rect x="26" y="7" width="1" height="1" fill="#FFFFFF" />
<rect x="27" y="7" width="1" height="1" fill="#FFFFFF" />
<rect x="28" y="7" width="1" height="1" fill="#181425" />
<rect x="0" y="8" width="1" height="1" fill="#181425" />
<rect x="1" y="8" width="1" height="1" fill="#181425" />
<rect x="2" y="8" width="1" height="1" fill="#181425" />
<rect x="3" y="8" width="1" height="1" fill="#181425" />
<rect x="4" y="8" width="1" height="1" fill="#181425" />
<rect x="5" y="8" width="1" height="1" fill="#181425" />
<rect x="6" y="8" width="1" height="1" fill="#181425" />
<rect x="7" y="8" width="1" height="1" fill="#181425" />
<rect x="8" y="8" width="1" height="1" fill="#181425" />
<rect x="9" y="8" width="1" height="1" fill="#181425" />
<rect x="10" y="8" width="1" height="1" fill="#181425" />
<rect x="11" y="8" width="1" height="1" fill="#181425" />
<rect x="12" y="8" width="1" height="1" fill="#FEAE34" />
<rect x="13" y="8" width="1" height="1" fill="#FEE761" />
<rect x="14" y="8" width="1" height="1" fill="#181425" />
<rect x="15" y="8" width="1" height="1" fill="#181425" />
<rect x="16" y="8" width="1" height="1" fill="#181425" />
<rect x="17" y="8" width="1" height="1" fill="#181425" />
<rect x="18" y="8" width="1" height="1" fill="#181425" />
<rect x="19" y="8" width="1" height="1" fill="#181425" />
<rect x="20" y="8" width="1" height="1" fill="#181425" />
<rect x="21" y="8" width="1" height="1" fill="#181425" />
<rect x="22" y="8" width="1" height="1" fill="#181425" />
<rect x="23" y="8" width="1" height="1" fill="#181425" />
<rect x="24" y="8" width="1" height="1" fill="#181425" />
<rect x="25" y="8" width="1" height="1" fill="#8B9BB4" />
<rect x="26" y="8" width="1" height="1" fill="#8B9BB4" />
<rect x="27" y="8" width="1" height="1" fill="#8B9BB4" />
<rect x="28" y="8" width="1" height="1" fill="#FFFFFF" />
<rect x="29" y="8" width="1" height="1" fill="#181425" />
<rect x="30" y="8" width="1" height="1" fill="#181425" />
<rect x="31" y="8" width="1" height="1" fill="#181425" />
<rect x="0" y="9" width="1" height="1" fill="#8B9BB4" />
<rect x="1" y="9" width="1" height="1" fill="#8B9BB4" />
<rect x="2" y="9" width="1" height="1" fill="#8B9BB4" />
<rect x="3" y="9" width="1" height="1" fill="#8B9BB4" />
<rect x="4" y="9" width="1" height="1" fill="#8B9BB4" />
<rect x="5" y="9" width="1" height="1" fill="#8B9BB4" />
<rect x="6" y="9" width="1" height="1" fill="#8B9BB4" />
<rect x="7" y="9" width="1" height="1" fill="#3A4466" />
<rect x="8" y="9" width="1" height="1" fill="#3A4466" />
<rect x="9" y="9" width="1" height="1" fill="#3A4466" />
<rect x="10" y="9" width="1" height="1" fill="#3A4466" />
<rect x="11" y="9" width="1" height="1" fill="#3A4466" />
<rect x="12" y="9" width="1" height="1" fill="#FEAE34" />
<rect x="13" y="9" width="1" height="1" fill="#FEE761" />
<rect x="14" y="9" width="1" height="1" fill="#181425" />
<rect x="15" y="9" width="1" height="1" fill="#8B9BB4" />
<rect x="16" y="9" width="1" height="1" fill="#8B9BB4" />
<rect x="17" y="9" width="1" height="1" fill="#8B9BB4" />
<rect x="18" y="9" width="1" height="1" fill="#8B9BB4" />
<rect x="19" y="9" width="1" height="1" fill="#8B9BB4" />
<rect x="20" y="9" width="1" height="1" fill="#8B9BB4" />
<rect x="21" y="9" width="1" height="1" fill="#3A4466" />
<rect x="22" y="9" width="1" height="1" fill="#3A4466" />
<rect x="23" y="9" width="1" height="1" fill="#3A4466" />
<rect x="24" y="9" width="1" height="1" fill="#3A4466" />
<rect x="25" y="9" width="1" height="1" fill="#8B9BB4" />
<rect x="26" y="9" width="1" height="1" fill="#8B9BB4" />
<rect x="27" y="9" width="1" height="1" fill="#8B9BB4" />
<rect x="28" y="9" width="1" height="1" fill="#C0CBDC" />
<rect x="29" y="9" width="1" height="1" fill="#8B9BB4" />
<rect x="30" y="9" width="1" height="1" fill="#8B9BB4" />
<rect x="31" y="9" width="1" height="1" fill="#181425" />
<rect x="0" y="10" width="1" height="1" fill="#5A6988" />
<rect x="1" y="10" width="1" height="1" fill="#5A6988" />
<rect x="2" y="10" width="1" height="1" fill="#5A6988" />
<rect x="3" y="10" width="1" height="1" fill="#5A6988" />
<rect x="4" y="10" width="1" height="1" fill="#5A6988" />
<rect x="5" y="10" width="1" height="1" fill="#5A6988" />
<rect x="6" y="10" width="1" height="1" fill="#5A6988" />
<rect x="7" y="10" width="1" height="1" fill="#5A6988" />
<rect x="8" y="10" width="1" height="1" fill="#5A6988" />
<rect x="9" y="10" width="1" height="1" fill="#5A6988" />
<rect x="10" y="10" width="1" height="1" fill="#5A6988" />
<rect x="11" y="10" width="1" height="1" fill="#3A4466" />
<rect x="12" y="10" width="1" height="1" fill="#FEAE34" />
<rect x="13" y="10" width="1" height="1" fill="#FEE761" />
<rect x="14" y="10" width="1" height="1" fill="#181425" />
<rect x="15" y="10" width="1" height="1" fill="#5A6988" />
<rect x="16" y="10" width="1" height="1" fill="#5A6988" />
<rect x="17" y="10" width="1" height="1" fill="#5A6988" />
<rect x="18" y="10" width="1" height="1" fill="#5A6988" />
<rect x="19" y="10" width="1" height="1" fill="#5A6988" />
<rect x="20" y="10" width="1" height="1" fill="#5A6988" />
<rect x="21" y="10" width="1" height="1" fill="#5A6988" />
<rect x="22" y="10" width="1" height="1" fill="#5A6988" />
<rect x="23" y="10" width="1" height="1" fill="#5A6988" />
<rect x="24" y="10" width="1" height="1" fill="#3A4466" />
<rect x="25" y="10" width="1" height="1" fill="#8B9BB4" />
<rect x="26" y="10" width="1" height="1" fill="#8B9BB4" />
<rect x="27" y="10" width="1" height="1" fill="#8B9BB4" />
<rect x="28" y="10" width="1" height="1" fill="#8B9BB4" />
<rect x="29" y="10" width="1" height="1" fill="#5A6988" />
<rect x="30" y="10" width="1" height="1" fill="#5A6988" />
<rect x="31" y="10" width="1" height="1" fill="#181425" />
<rect x="0" y="11" width="1" height="1" fill="#181425" />
<rect x="1" y="11" width="1" height="1" fill="#181425" />
<rect x="2" y="11" width="1" height="1" fill="#181425" />
<rect x="3" y="11" width="1" height="1" fill="#181425" />
<rect x="4" y="11" width="1" height="1" fill="#181425" />
<rect x="5" y="11" width="1" height="1" fill="#181425" />
<rect x="6" y="11" width="1" height="1" fill="#181425" />
<rect x="7" y="11" width="1" height="1" fill="#181425" />
<rect x="8" y="11" width="1" height="1" fill="#181425" />
<rect x="9" y="11" width="1" height="1" fill="#181425" />
<rect x="10" y="11" width="1" height="1" fill="#181425" />
<rect x="11" y="11" width="1" height="1" fill="#181425" />
<rect x="12" y="11" width="1" height="1" fill="#181425" />
<rect x="13" y="11" width="1" height="1" fill="#FEAE34" />
<rect x="14" y="11" width="1" height="1" fill="#181425" />
<rect x="15" y="11" width="1" height="1" fill="#181425" />
<rect x="16" y="11" width="1" height="1" fill="#181425" />
<rect x="17" y="11" width="1" height="1" fill="#181425" />
<rect x="18" y="11" width="1" height="1" fill="#181425" />
<rect x="19" y="11" width="1" height="1" fill="#181425" />
<rect x="20" y="11" width="1" height="1" fill="#181425" />
<rect x="21" y="11" width="1" height="1" fill="#181425" />
<rect x="22" y="11" width="1" height="1" fill="#181425" />
<rect x="23" y="11" width="1" height="1" fill="#181425" />
<rect x="24" y="11" width="1" height="1" fill="#181425" />
<rect x="25" y="11" width="1" height="1" fill="#8B9BB4" />
<rect x="26" y="11" width="1" height="1" fill="#8B9BB4" />
<rect x="27" y="11" width="1" height="1" fill="#8B9BB4" />
<rect x="28" y="11" width="1" height="1" fill="#8B9BB4" />
<rect x="29" y="11" width="1" height="1" fill="#181425" />
<rect x="30" y="11" width="1" height="1" fill="#181425" />
<rect x="31" y="11" width="1" height="1" fill="#181425" />
<rect x="8" y="12" width="1" height="1" fill="#181425" />
<rect x="9" y="12" width="1" height="1" fill="#FEAE34" />
<rect x="10" y="12" width="1" height="1" fill="#FEAE34" />
<rect x="11" y="12" width="1" height="1" fill="#FEAE34" />
<rect x="12" y="12" width="1" height="1" fill="#FEAE34" />
<rect x="13" y="12" width="1" height="1" fill="#181425" />
<rect x="23" y="12" width="1" height="1" fill="#181425" />
<rect x="24" y="12" width="1" height="1" fill="#5A6988" />
<rect x="25" y="12" width="1" height="1" fill="#5A6988" />
<rect x="26" y="12" width="1" height="1" fill="#5A6988" />
<rect x="27" y="12" width="1" height="1" fill="#8B9BB4" />
<rect x="28" y="12" width="1" height="1" fill="#181425" />
<rect x="7" y="13" width="1" height="1" fill="#181425" />
<rect x="8" y="13" width="1" height="1" fill="#FEE761" />
<rect x="9" y="13" width="1" height="1" fill="#FEE761" />
<rect x="10" y="13" width="1" height="1" fill="#181425" />
<rect x="11" y="13" width="1" height="1" fill="#181425" />
<rect x="12" y="13" width="1" height="1" fill="#FEE761" />
<rect x="13" y="13" width="1" height="1" fill="#FEAE34" />
<rect x="14" y="13" width="1" height="1" fill="#181425" />
<rect x="24" y="13" width="1" height="1" fill="#181425" />
<rect x="25" y="13" width="1" height="1" fill="#181425" />
<rect x="26" y="13" width="1" height="1" fill="#181425" />
<rect x="27" y="13" width="1" height="1" fill="#181425" />
<rect x="7" y="14" width="1" height="1" fill="#181425" />
<rect x="8" y="14" width="1" height="1" fill="#FEE761" />
<rect x="9" y="14" width="1" height="1" fill="#FEE761" />
<rect x="10" y="14" width="1" height="1" fill="#181425" />
<rect x="11" y="14" width="1" height="1" fill="#181425" />
<rect x="12" y="14" width="1" height="1" fill="#FEE761" />
<rect x="13" y="14" width="1" height="1" fill="#FEE761" />
<rect x="14" y="14" width="1" height="1" fill="#181425" />
<rect x="0" y="15" width="1" height="1" fill="#181425" />
<rect x="1" y="15" width="1" height="1" fill="#181425" />
<rect x="2" y="15" width="1" height="1" fill="#181425" />
<rect x="3" y="15" width="1" height="1" fill="#181425" />
<rect x="4" y="15" width="1" height="1" fill="#181425" />
<rect x="5" y="15" width="1" height="1" fill="#181425" />
<rect x="6" y="15" width="1" height="1" fill="#181425" />
<rect x="7" y="15" width="1" height="1" fill="#181425" />
<rect x="8" y="15" width="1" height="1" fill="#181425" />
<rect x="9" y="15" width="1" height="1" fill="#181425" />
<rect x="10" y="15" width="1" height="1" fill="#181425" />
<rect x="11" y="15" width="1" height="1" fill="#181425" />
<rect x="12" y="15" width="1" height="1" fill="#181425" />
<rect x="13" y="15" width="1" height="1" fill="#181425" />
<rect x="14" y="15" width="1" height="1" fill="#181425" />
<rect x="15" y="15" width="1" height="1" fill="#181425" />
<rect x="16" y="15" width="1" height="1" fill="#181425" />
<rect x="17" y="15" width="1" height="1" fill="#181425" />
<rect x="18" y="15" width="1" height="1" fill="#181425" />
<rect x="19" y="15" width="1" height="1" fill="#181425" />
<rect x="20" y="15" width="1" height="1" fill="#181425" />
<rect x="21" y="15" width="1" height="1" fill="#181425" />
<rect x="22" y="15" width="1" height="1" fill="#181425" />
<rect x="23" y="15" width="1" height="1" fill="#181425" />
<rect x="24" y="15" width="1" height="1" fill="#181425" />
<rect x="0" y="16" width="1" height="1" fill="#733E39" />
<rect x="1" y="16" width="1" height="1" fill="#733E39" />
<rect x="2" y="16" width="1" height="1" fill="#733E39" />
<rect x="3" y="16" width="1" height="1" fill="#733E39" />
<rect x="4" y="16" width="1" height="1" fill="#733E39" />
<rect x="5" y="16" width="1" height="1" fill="#733E39" />
<rect x="6" y="16" width="1" height="1" fill="#733E39" />
<rect x="7" y="16" width="1" height="1" fill="#733E39" />
<rect x="8" y="16" width="1" height="1" fill="#733E39" />
<rect x="9" y="16" width="1" height="1" fill="#733E39" />
<rect x="10" y="16" width="1" height="1" fill="#733E39" />
<rect x="11" y="16" width="1" height="1" fill="#733E39" />
<rect x="12" y="16" width="1" height="1" fill="#733E39" />
<rect x="13" y="16" width="1" height="1" fill="#733E39" />
<rect x="14" y="16" width="1" height="1" fill="#733E39" />
<rect x="15" y="16" width="1" height="1" fill="#733E39" />
<rect x="16" y="16" width="1" height="1" fill="#733E39" />
<rect x="17" y="16" width="1" height="1" fill="#733E39" />
<rect x="18" y="16" width="1" height="1" fill="#733E39" />
<rect x="19" y="16" width="1" height="1" fill="#733E39" />
<rect x="20" y="16" width="1" height="1" fill="#733E39" />
<rect x="21" y="16" width="1" height="1" fill="#733E39" />
<rect x="22" y="16" width="1" height="1" fill="#733E39" />
<rect x="23" y="16" width="1" height="1" fill="#733E39" />
<rect x="24" y="16" width="1" height="1" fill="#181425" />
<rect x="0" y="17" width="1" height="1" fill="#733E39" />
<rect x="1" y="17" width="1" height="1" fill="#733E39" />
<rect x="2" y="17" width="1" height="1" fill="#733E39" />
<rect x="3" y="17" width="1" height="1" fill="#733E39" />
<rect x="4" y="17" width="1" height="1" fill="#733E39" />
<rect x="5" y="17" width="1" height="1" fill="#733E39" />
<rect x="6" y="17" width="1" height="1" fill="#733E39" />
<rect x="7" y="17" width="1" height="1" fill="#733E39" />
<rect x="8" y="17" width="1" height="1" fill="#733E39" />
<rect x="9" y="17" width="1" height="1" fill="#733E39" />
<rect x="10" y="17" width="1" height="1" fill="#733E39" />
<rect x="11" y="17" width="1" height="1" fill="#733E39" />
<rect x="12" y="17" width="1" height="1" fill="#733E39" />
<rect x="13" y="17" width="1" height="1" fill="#733E39" />
<rect x="14" y="17" width="1" height="1" fill="#733E39" />
<rect x="15" y="17" width="1" height="1" fill="#733E39" />
<rect x="16" y="17" width="1" height="1" fill="#733E39" />
<rect x="17" y="17" width="1" height="1" fill="#733E39" />
<rect x="18" y="17" width="1" height="1" fill="#733E39" />
<rect x="19" y="17" width="1" height="1" fill="#733E39" />
<rect x="20" y="17" width="1" height="1" fill="#733E39" />
<rect x="21" y="17" width="1" height="1" fill="#733E39" />
<rect x="22" y="17" width="1" height="1" fill="#733E39" />
<rect x="23" y="17" width="1" height="1" fill="#733E39" />
<rect x="24" y="17" width="1" height="1" fill="#181425" />
<rect x="0" y="18" width="1" height="1" fill="#733E39" />
<rect x="1" y="18" width="1" height="1" fill="#733E39" />
<rect x="2" y="18" width="1" height="1" fill="#733E39" />
<rect x="3" y="18" width="1" height="1" fill="#733E39" />
<rect x="4" y="18" width="1" height="1" fill="#733E39" />
<rect x="5" y="18" width="1" height="1" fill="#733E39" />
<rect x="6" y="18" width="1" height="1" fill="#733E39" />
<rect x="7" y="18" width="1" height="1" fill="#733E39" />
<rect x="8" y="18" width="1" height="1" fill="#733E39" />
<rect x="9" y="18" width="1" height="1" fill="#733E39" />
<rect x="10" y="18" width="1" height="1" fill="#733E39" />
<rect x="11" y="18" width="1" height="1" fill="#733E39" />
<rect x="12" y="18" width="1" height="1" fill="#733E39" />
<rect x="13" y="18" width="1" height="1" fill="#733E39" />
<rect x="14" y="18" width="1" height="1" fill="#733E39" />
<rect x="15" y="18" width="1" height="1" fill="#733E39" />
<rect x="16" y="18" width="1" height="1" fill="#733E39" />
<rect x="17" y="18" width="1" height="1" fill="#733E39" />
<rect x="18" y="18" width="1" height="1" fill="#733E39" />
<rect x="19" y="18" width="1" height="1" fill="#733E39" />
<rect x="20" y="18" width="1" height="1" fill="#733E39" />
<rect x="21" y="18" width="1" height="1" fill="#733E39" />
<rect x="22" y="18" width="1" height="1" fill="#733E39" />
<rect x="23" y="18" width="1" height="1" fill="#733E39" />
<rect x="24" y="18" width="1" height="1" fill="#181425" />
<rect x="0" y="19" width="1" height="1" fill="#181425" />
<rect x="1" y="19" width="1" height="1" fill="#181425" />
<rect x="2" y="19" width="1" height="1" fill="#181425" />
<rect x="3" y="19" width="1" height="1" fill="#181425" />
<rect x="4" y="19" width="1" height="1" fill="#181425" />
<rect x="5" y="19" width="1" height="1" fill="#181425" />
<rect x="6" y="19" width="1" height="1" fill="#181425" />
<rect x="7" y="19" width="1" height="1" fill="#181425" />
<rect x="8" y="19" width="1" height="1" fill="#181425" />
<rect x="9" y="19" width="1" height="1" fill="#181425" />
<rect x="10" y="19" width="1" height="1" fill="#181425" />
<rect x="11" y="19" width="1" height="1" fill="#181425" />
<rect x="12" y="19" width="1" height="1" fill="#181425" />
<rect x="13" y="19" width="1" height="1" fill="#181425" />
<rect x="14" y="19" width="1" height="1" fill="#181425" />
<rect x="15" y="19" width="1" height="1" fill="#181425" />
<rect x="16" y="19" width="1" height="1" fill="#181425" />
<rect x="17" y="19" width="1" height="1" fill="#181425" />
<rect x="18" y="19" width="1" height="1" fill="#181425" />
<rect x="19" y="19" width="1" height="1" fill="#181425" />
<rect x="20" y="19" width="1" height="1" fill="#181425" />
<rect x="21" y="19" width="1" height="1" fill="#181425" />
<rect x="22" y="19" width="1" height="1" fill="#181425" />
<rect x="23" y="19" width="1" height="1" fill="#181425" />
<rect x="24" y="19" width="1" height="1" fill="#181425" />
<rect x="0" y="20" width="1" height="1" fill="#B86F50" />
<rect x="1" y="20" width="1" height="1" fill="#B86F50" />
<rect x="2" y="20" width="1" height="1" fill="#B86F50" />
<rect x="3" y="20" width="1" height="1" fill="#B86F50" />
<rect x="4" y="20" width="1" height="1" fill="#B86F50" />
<rect x="5" y="20" width="1" height="1" fill="#B86F50" />
<rect x="6" y="20" width="1" height="1" fill="#B86F50" />
<rect x="7" y="20" width="1" height="1" fill="#B86F50" />
<rect x="8" y="20" width="1" height="1" fill="#B86F50" />
<rect x="9" y="20" width="1" height="1" fill="#B86F50" />
<rect x="10" y="20" width="1" height="1" fill="#B86F50" />
<rect x="11" y="20" width="1" height="1" fill="#B86F50" />
<rect x="12" y="20" width="1" height="1" fill="#B86F50" />
<rect x="13" y="20" width="1" height="1" fill="#B86F50" />
<rect x="14" y="20" width="1" height="1" fill="#B86F50" />
<rect x="15" y="20" width="1" height="1" fill="#B86F50" />
<rect x="16" y="20" width="1" height="1" fill="#B86F50" />
<rect x="17" y="20" width="1" height="1" fill="#B86F50" />
<rect x="18" y="20" width="1" height="1" fill="#B86F50" />
<rect x="19" y="20" width="1" height="1" fill="#B86F50" />
<rect x="20" y="20" width="1" height="1" fill="#B86F50" />
<rect x="21" y="20" width="1" height="1" fill="#B86F50" />
<rect x="22" y="20" width="1" height="1" fill="#B86F50" />
<rect x="23" y="20" width="1" height="1" fill="#181425" />
<rect x="0" y="21" width="1" height="1" fill="#B86F50" />
<rect x="1" y="21" width="1" height="1" fill="#B86F50" />
<rect x="2" y="21" width="1" height="1" fill="#B86F50" />
<rect x="3" y="21" width="1" height="1" fill="#B86F50" />
<rect x="4" y="21" width="1" height="1" fill="#B86F50" />
<rect x="5" y="21" width="1" height="1" fill="#B86F50" />
<rect x="6" y="21" width="1" height="1" fill="#B86F50" />
<rect x="7" y="21" width="1" height="1" fill="#B86F50" />
<rect x="8" y="21" width="1" height="1" fill="#B86F50" />
<rect x="9" y="21" width="1" height="1" fill="#B86F50" />
<rect x="10" y="21" width="1" height="1" fill="#B86F50" />
<rect x="11" y="21" width="1" height="1" fill="#B86F50" />
<rect x="12" y="21" width="1" height="1" fill="#B86F50" />
<rect x="13" y="21" width="1" height="1" fill="#B86F50" />
<rect x="14" y="21" width="1" height="1" fill="#B86F50" />
<rect x="15" y="21" width="1" height="1" fill="#B86F50" />
<rect x="16" y="21" width="1" height="1" fill="#B86F50" />
<rect x="17" y="21" width="1" height="1" fill="#B86F50" />
<rect x="18" y="21" width="1" height="1" fill="#B86F50" />
<rect x="19" y="21" width="1" height="1" fill="#B86F50" />
<rect x="20" y="21" width="1" height="1" fill="#B86F50" />
<rect x="21" y="21" width="1" height="1" fill="#B86F50" />
<rect x="22" y="21" width="1" height="1" fill="#B86F50" />
<rect x="23" y="21" width="1" height="1" fill="#181425" />
<rect x="0" y="22" width="1" height="1" fill="#B86F50" />
<rect x="1" y="22" width="1" height="1" fill="#B86F50" />
<rect x="2" y="22" width="1" height="1" fill="#B86F50" />
<rect x="3" y="22" width="1" height="1" fill="#B86F50" />
<rect x="4" y="22" width="1" height="1" fill="#B86F50" />
<rect x="5" y="22" width="1" height="1" fill="#B86F50" />
<rect x="6" y="22" width="1" height="1" fill="#B86F50" />
<rect x="7" y="22" width="1" height="1" fill="#B86F50" />
<rect x="8" y="22" width="1" height="1" fill="#B86F50" />
<rect x="9" y="22" width="1" height="1" fill="#B86F50" />
<rect x="10" y="22" width="1" height="1" fill="#B86F50" />
<rect x="11" y="22" width="1" height="1" fill="#B86F50" />
<rect x="12" y="22" width="1" height="1" fill="#B86F50" />
<rect x="13" y="22" width="1" height="1" fill="#B86F50" />
<rect x="14" y="22" width="1" height="1" fill="#B86F50" />
<rect x="15" y="22" width="1" height="1" fill="#B86F50" />
<rect x="16" y="22" width="1" height="1" fill="#B86F50" />
<rect x="17" y="22" width="1" height="1" fill="#B86F50" />
<rect x="18" y="22" width="1" height="1" fill="#B86F50" />
<rect x="19" y="22" width="1" height="1" fill="#B86F50" />
<rect x="20" y="22" width="1" height="1" fill="#B86F50" />
<rect x="21" y="22" width="1" height="1" fill="#B86F50" />
<rect x="22" y="22" width="1" height="1" fill="#B86F50" />
<rect x="23" y="22" width="1" height="1" fill="#181425" />
<rect x="0" y="23" width="1" height="1" fill="#B86F50" />
<rect x="1" y="23" width="1" height="1" fill="#B86F50" />
<rect x="2" y="23" width="1" height="1" fill="#B86F50" />
<rect x="3" y="23" width="1" height="1" fill="#B86F50" />
<rect x="4" y="23" width="1" height="1" fill="#B86F50" />
<rect x="5" y="23" width="1" height="1" fill="#B86F50" />
<rect x="6" y="23" width="1" height="1" fill="#B86F50" />
<rect x="7" y="23" width="1" height="1" fill="#B86F50" />
<rect x="8" y="23" width="1" height="1" fill="#B86F50" />
<rect x="9" y="23" width="1" height="1" fill="#B86F50" />
<rect x="10" y="23" width="1" height="1" fill="#B86F50" />
<rect x="11" y="23" width="1" height="1" fill="#B86F50" />
<rect x="12" y="23" width="1" height="1" fill="#B86F50" />
<rect x="13" y="23" width="1" height="1" fill="#B86F50" />
<rect x="14" y="23" width="1" height="1" fill="#B86F50" />
<rect x="15" y="23" width="1" height="1" fill="#B86F50" />
<rect x="16" y="23" width="1" height="1" fill="#B86F50" />
<rect x="17" y="23" width="1" height="1" fill="#B86F50" />
<rect x="18" y="23" width="1" height="1" fill="#B86F50" />
<rect x="19" y="23" width="1" height="1" fill="#B86F50" />
<rect x="20" y="23" width="1" height="1" fill="#B86F50" />
<rect x="21" y="23" width="1" height="1" fill="#B86F50" />
<rect x="22" y="23" width="1" height="1" fill="#B86F50" />
<rect x="23" y="23" width="1" height="1" fill="#181425" />
<rect x="0" y="24" width="1" height="1" fill="#B86F50" />
<rect x="1" y="24" width="1" height="1" fill="#B86F50" />
<rect x="2" y="24" width="1" height="1" fill="#B86F50" />
<rect x="3" y="24" width="1" height="1" fill="#B86F50" />
<rect x="4" y="24" width="1" height="1" fill="#B86F50" />
<rect x="5" y="24" width="1" height="1" fill="#B86F50" />
<rect x="6" y="24" width="1" height="1" fill="#B86F50" />
<rect x="7" y="24" width="1" height="1" fill="#B86F50" />
<rect x="8" y="24" width="1" height="1" fill="#B86F50" />
<rect x="9" y="24" width="1" height="1" fill="#B86F50" />
<rect x="10" y="24" width="1" height="1" fill="#B86F50" />
<rect x="11" y="24" width="1" height="1" fill="#B86F50" />
<rect x="12" y="24" width="1" height="1" fill="#B86F50" />
<rect x="13" y="24" width="1" height="1" fill="#B86F50" />
<rect x="14" y="24" width="1" height="1" fill="#B86F50" />
<rect x="15" y="24" width="1" height="1" fill="#B86F50" />
<rect x="16" y="24" width="1" height="1" fill="#B86F50" />
<rect x="17" y="24" width="1" height="1" fill="#B86F50" />
<rect x="18" y="24" width="1" height="1" fill="#B86F50" />
<rect x="19" y="24" width="1" height="1" fill="#B86F50" />
<rect x="20" y="24" width="1" height="1" fill="#B86F50" />
<rect x="21" y="24" width="1" height="1" fill="#B86F50" />
<rect x="22" y="24" width="1" height="1" fill="#B86F50" />
<rect x="23" y="24" width="1" height="1" fill="#181425" />
<rect x="0" y="25" width="1" height="1" fill="#B86F50" />
<rect x="1" y="25" width="1" height="1" fill="#B86F50" />
<rect x="2" y="25" width="1" height="1" fill="#B86F50" />
<rect x="3" y="25" width="1" height="1" fill="#B86F50" />
<rect x="4" y="25" width="1" height="1" fill="#B86F50" />
<rect x="5" y="25" width="1" height="1" fill="#B86F50" />
<rect x="6" y="25" width="1" height="1" fill="#B86F50" />
<rect x="7" y="25" width="1" height="1" fill="#B86F50" />
<rect x="8" y="25" width="1" height="1" fill="#B86F50" />
<rect x="9" y="25" width="1" height="1" fill="#B86F50" />
<rect x="10" y="25" width="1" height="1" fill="#B86F50" />
<rect x="11" y="25" width="1" height="1" fill="#B86F50" />
<rect x="12" y="25" width="1" height="1" fill="#B86F50" />
<rect x="13" y="25" width="1" height="1" fill="#B86F50" />
<rect x="14" y="25" width="1" height="1" fill="#B86F50" />
<rect x="15" y="25" width="1" height="1" fill="#B86F50" />
<rect x="16" y="25" width="1" height="1" fill="#B86F50" />
<rect x="17" y="25" width="1" height="1" fill="#B86F50" />
<rect x="18" y="25" width="1" height="1" fill="#B86F50" />
<rect x="19" y="25" width="1" height="1" fill="#B86F50" />
<rect x="20" y="25" width="1" height="1" fill="#B86F50" />
<rect x="21" y="25" width="1" height="1" fill="#B86F50" />
<rect x="22" y="25" width="1" height="1" fill="#B86F50" />
<rect x="23" y="25" width="1" height="1" fill="#181425" />
<rect x="0" y="26" width="1" height="1" fill="#B86F50" />
<rect x="1" y="26" width="1" height="1" fill="#B86F50" />
<rect x="2" y="26" width="1" height="1" fill="#B86F50" />
<rect x="3" y="26" width="1" height="1" fill="#B86F50" />
<rect x="4" y="26" width="1" height="1" fill="#B86F50" />
<rect x="5" y="26" width="1" height="1" fill="#B86F50" />
<rect x="6" y="26" width="1" height="1" fill="#B86F50" />
<rect x="7" y="26" width="1" height="1" fill="#B86F50" />
<rect x="8" y="26" width="1" height="1" fill="#B86F50" />
<rect x="9" y="26" width="1" height="1" fill="#B86F50" />
<rect x="10" y="26" width="1" height="1" fill="#B86F50" />
<rect x="11" y="26" width="1" height="1" fill="#B86F50" />
<rect x="12" y="26" width="1" height="1" fill="#B86F50" />
<rect x="13" y="26" width="1" height="1" fill="#B86F50" />
<rect x="14" y="26" width="1" height="1" fill="#B86F50" />
<rect x="15" y="26" width="1" height="1" fill="#B86F50" />
<rect x="16" y="26" width="1" height="1" fill="#B86F50" />
<rect x="17" y="26" width="1" height="1" fill="#B86F50" />
<rect x="18" y="26" width="1" height="1" fill="#B86F50" />
<rect x="19" y="26" width="1" height="1" fill="#B86F50" />
<rect x="20" y="26" width="1" height="1" fill="#B86F50" />
<rect x="21" y="26" width="1" height="1" fill="#B86F50" />
<rect x="22" y="26" width="1" height="1" fill="#B86F50" />
<rect x="23" y="26" width="1" height="1" fill="#181425" />
<rect x="0" y="27" width="1" height="1" fill="#B86F50" />
<rect x="1" y="27" width="1" height="1" fill="#B86F50" />
<rect x="2" y="27" width="1" height="1" fill="#B86F50" />
<rect x="3" y="27" width="1" height="1" fill="#B86F50" />
<rect x="4" y="27" width="1" height="1" fill="#B86F50" />
<rect x="5" y="27" width="1" height="1" fill="#B86F50" />
<rect x="6" y="27" width="1" height="1" fill="#B86F50" />
<rect x="7" y="27" width="1" height="1" fill="#B86F50" />
<rect x="8" y="27" width="1" height="1" fill="#B86F50" />
<rect x="9" y="27" width="1" height="1" fill="#B86F50" />
<rect x="10" y="27" width="1" height="1" fill="#B86F50" />
<rect x="11" y="27" width="1" height="1" fill="#B86F50" />
<rect x="12" y="27" width="1" height="1" fill="#B86F50" />
<rect x="13" y="27" width="1" height="1" fill="#B86F50" />
<rect x="14" y="27" width="1" height="1" fill="#B86F50" />
<rect x="15" y="27" width="1" height="1" fill="#B86F50" />
<rect x="16" y="27" width="1" height="1" fill="#B86F50" />
<rect x="17" y="27" width="1" height="1" fill="#B86F50" />
<rect x="18" y="27" width="1" height="1" fill="#B86F50" />
<rect x="19" y="27" width="1" height="1" fill="#B86F50" />
<rect x="20" y="27" width="1" height="1" fill="#B86F50" />
<rect x="21" y="27" width="1" height="1" fill="#B86F50" />
<rect x="22" y="27" width="1" height="1" fill="#B86F50" />
<rect x="23" y="27" width="1" height="1" fill="#181425" />
<rect x="0" y="28" width="1" height="1" fill="#B86F50" />
<rect x="1" y="28" width="1" height="1" fill="#B86F50" />
<rect x="2" y="28" width="1" height="1" fill="#B86F50" />
<rect x="3" y="28" width="1" height="1" fill="#B86F50" />
<rect x="4" y="28" width="1" height="1" fill="#B86F50" />
<rect x="5" y="28" width="1" height="1" fill="#B86F50" />
<rect x="6" y="28" width="1" height="1" fill="#B86F50" />
<rect x="7" y="28" width="1" height="1" fill="#B86F50" />
<rect x="8" y="28" width="1" height="1" fill="#B86F50" />
<rect x="9" y="28" width="1" height="1" fill="#B86F50" />
<rect x="10" y="28" width="1" height="1" fill="#B86F50" />
<rect x="11" y="28" width="1" height="1" fill="#B86F50" />
<rect x="12" y="28" width="1" height="1" fill="#B86F50" />
<rect x="13" y="28" width="1" height="1" fill="#B86F50" />
<rect x="14" y="28" width="1" height="1" fill="#B86F50" />
<rect x="15" y="28" width="1" height="1" fill="#B86F50" />
<rect x="16" y="28" width="1" height="1" fill="#B86F50" />
<rect x="17" y="28" width="1" height="1" fill="#B86F50" />
<rect x="18" y="28" width="1" height="1" fill="#B86F50" />
<rect x="19" y="28" width="1" height="1" fill="#B86F50" />
<rect x="20" y="28" width="1" height="1" fill="#B86F50" />
<rect x="21" y="28" width="1" height="1" fill="#B86F50" />
<rect x="22" y="28" width="1" height="1" fill="#B86F50" />
<rect x="23" y="28" width="1" height="1" fill="#181425" />
<rect x="0" y="29" width="1" height="1" fill="#B86F50" />
<rect x="1" y="29" width="1" height="1" fill="#B86F50" />
<rect x="2" y="29" width="1" height="1" fill="#B86F50" />
<rect x="3" y="29" width="1" height="1" fill="#B86F50" />
<rect x="4" y="29" width="1" height="1" fill="#B86F50" />
<rect x="5" y="29" width="1" height="1" fill="#B86F50" />
<rect x="6" y="29" width="1" height="1" fill="#B86F50" />
<rect x="7" y="29" width="1" height="1" fill="#B86F50" />
<rect x="8" y="29" width="1" height="1" fill="#B86F50" />
<rect x="9" y="29" width="1" height="1" fill="#B86F50" />
<rect x="10" y="29" width="1" height="1" fill="#B86F50" />
<rect x="11" y="29" width="1" height="1" fill="#B86F50" />
<rect x="12" y="29" width="1" height="1" fill="#B86F50" />
<rect x="13" y="29" width="1" height="1" fill="#B86F50" />
<rect x="14" y="29" width="1" height="1" fill="#B86F50" />
<rect x="15" y="29" width="1" height="1" fill="#B86F50" />
<rect x="16" y="29" width="1" height="1" fill="#B86F50" />
<rect x="17" y="29" width="1" height="1" fill="#B86F50" />
<rect x="18" y="29" width="1" height="1" fill="#B86F50" />
<rect x="19" y="29" width="1" height="1" fill="#B86F50" />
<rect x="20" y="29" width="1" height="1" fill="#B86F50" />
<rect x="21" y="29" width="1" height="1" fill="#B86F50" />
<rect x="22" y="29" width="1" height="1" fill="#B86F50" />
<rect x="23" y="29" width="1" height="1" fill="#181425" />
<rect x="0" y="30" width="1" height="1" fill="#B86F50" />
<rect x="1" y="30" width="1" height="1" fill="#B86F50" />
<rect x="2" y="30" width="1" height="1" fill="#B86F50" />
<rect x="3" y="30" width="1" height="1" fill="#B86F50" />
<rect x="4" y="30" width="1" height="1" fill="#B86F50" />
<rect x="5" y="30" width="1" height="1" fill="#B86F50" />
<rect x="6" y="30" width="1" height="1" fill="#B86F50" />
<rect x="7" y="30" width="1" height="1" fill="#B86F50" />
<rect x="8" y="30" width="1" height="1" fill="#B86F50" />
<rect x="9" y="30" width="1" height="1" fill="#B86F50" />
<rect x="10" y="30" width="1" height="1" fill="#B86F50" />
<rect x="11" y="30" width="1" height="1" fill="#B86F50" />
<rect x="12" y="30" width="1" height="1" fill="#B86F50" />
<rect x="13" y="30" width="1" height="1" fill="#B86F50" />
<rect x="14" y="30" width="1" height="1" fill="#B86F50" />
<rect x="15" y="30" width="1" height="1" fill="#B86F50" />
<rect x="16" y="30" width="1" height="1" fill="#B86F50" />
<rect x="17" y="30" width="1" height="1" fill="#B86F50" />
<rect x="18" y="30" width="1" height="1" fill="#B86F50" />
<rect x="19" y="30" width="1" height="1" fill="#B86F50" />
<rect x="20" y="30" width="1" height="1" fill="#B86F50" />
<rect x="21" y="30" width="1" height="1" fill="#B86F50" />
<rect x="22" y="30" width="1" height="1" fill="#B86F50" />
<rect x="23" y="30" width="1" height="1" fill="#181425" />
<rect x="0" y="31" width="1" height="1" fill="#B86F50" />
<rect x="1" y="31" width="1" height="1" fill="#B86F50" />
<rect x="2" y="31" width="1" height="1" fill="#B86F50" />
<rect x="3" y="31" width="1" height="1" fill="#B86F50" />
<rect x="4" y="31" width="1" height="1" fill="#B86F50" />
<rect x="5" y="31" width="1" height="1" fill="#B86F50" />
<rect x="6" y="31" width="1" height="1" fill="#B86F50" />
<rect x="7" y="31" width="1" height="1" fill="#B86F50" />
<rect x="8" y="31" width="1" height="1" fill="#B86F50" />
<rect x="9" y="31" width="1" height="1" fill="#B86F50" />
<rect x="10" y="31" width="1" height="1" fill="#B86F50" />
<rect x="11" y="31" width="1" height="1" fill="#B86F50" />
<rect x="12" y="31" width="1" height="1" fill="#B86F50" />
<rect x="13" y="31" width="1" height="1" fill="#B86F50" />
<rect x="14" y="31" width="1" height="1" fill="#B86F50" />
<rect x="15" y="31" width="1" height="1" fill="#B86F50" />
<rect x="16" y="31" width="1" height="1" fill="#B86F50" />
<rect x="17" y="31" width="1" height="1" fill="#B86F50" />
<rect x="18" y="31" width="1" height="1" fill="#B86F50" />
<rect x="19" y="31" width="1" height="1" fill="#B86F50" />
<rect x="20" y="31" width="1" height="1" fill="#B86F50" />
<rect x="21" y="31" width="1" height="1" fill="#B86F50" />
<rect x="22" y="31" width="1" height="1" fill="#B86F50" />
<rect x="23" y="31" width="1" height="1" fill="#181425" />
<rect x="0" y="32" width="1" height="1" fill="#B86F50" />
<rect x="1" y="32" width="1" height="1" fill="#B86F50" />
<rect x="2" y="32" width="1" height="1" fill="#B86F50" />
<rect x="3" y="32" width="1" height="1" fill="#B86F50" />
<rect x="4" y="32" width="1" height="1" fill="#B86F50" />
<rect x="5" y="32" width="1" height="1" fill="#B86F50" />
<rect x="6" y="32" width="1" height="1" fill="#B86F50" />
<rect x="7" y="32" width="1" height="1" fill="#B86F50" />
<rect x="8" y="32" width="1" height="1" fill="#B86F50" />
<rect x="9" y="32" width="1" height="1" fill="#B86F50" />
<rect x="10" y="32" width="1" height="1" fill="#B86F50" />
<rect x="11" y="32" width="1" height="1" fill="#B86F50" />
<rect x="12" y="32" width="1" height="1" fill="#B86F50" />
<rect x="13" y="32" width="1" height="1" fill="#B86F50" />
<rect x="14" y="32" width="1" height="1" fill="#B86F50" />
<rect x="15" y="32" width="1" height="1" fill="#B86F50" />
<rect x="16" y="32" width="1" height="1" fill="#B86F50" />
<rect x="17" y="32" width="1" height="1" fill="#B86F50" />
<rect x="18" y="32" width="1" height="1" fill="#B86F50" />
<rect x="19" y="32" width="1" height="1" fill="#B86F50" />
<rect x="20" y="32" width="1" height="1" fill="#B86F50" />
<rect x="21" y="32" width="1" height="1" fill="#B86F50" />
<rect x="22" y="32" width="1" height="1" fill="#B86F50" />
<rect x="23" y="32" width="1" height="1" fill="#181425" />
<rect x="0" y="33" width="1" height="1" fill="#B86F50" />
<rect x="1" y="33" width="1" height="1" fill="#B86F50" />
<rect x="2" y="33" width="1" height="1" fill="#B86F50" />
<rect x="3" y="33" width="1" height="1" fill="#B86F50" />
<rect x="4" y="33" width="1" height="1" fill="#B86F50" />
<rect x="5" y="33" width="1" height="1" fill="#B86F50" />
<rect x="6" y="33" width="1" height="1" fill="#B86F50" />
<rect x="7" y="33" width="1" height="1" fill="#B86F50" />
<rect x="8" y="33" width="1" height="1" fill="#B86F50" />
<rect x="9" y="33" width="1" height="1" fill="#B86F50" />
<rect x="10" y="33" width="1" height="1" fill="#B86F50" />
<rect x="11" y="33" width="1" height="1" fill="#B86F50" />
<rect x="12" y="33" width="1" height="1" fill="#B86F50" />
<rect x="13" y="33" width="1" height="1" fill="#B86F50" />
<rect x="14" y="33" width="1" height="1" fill="#B86F50" />
<rect x="15" y="33" width="1" height="1" fill="#B86F50" />
<rect x="16" y="33" width="1" height="1" fill="#B86F50" />
<rect x="17" y="33" width="1" height="1" fill="#B86F50" />
<rect x="18" y="33" width="1" height="1" fill="#B86F50" />
<rect x="19" y="33" width="1" height="1" fill="#B86F50" />
<rect x="20" y="33" width="1" height="1" fill="#B86F50" />
<rect x="21" y="33" width="1" height="1" fill="#B86F50" />
<rect x="22" y="33" width="1" height="1" fill="#B86F50" />
<rect x="23" y="33" width="1" height="1" fill="#181425" />
<rect x="0" y="34" width="1" height="1" fill="#B86F50" />
<rect x="1" y="34" width="1" height="1" fill="#B86F50" />
<rect x="2" y="34" width="1" height="1" fill="#B86F50" />
<rect x="3" y="34" width="1" height="1" fill="#B86F50" />
<rect x="4" y="34" width="1" height="1" fill="#B86F50" />
<rect x="5" y="34" width="1" height="1" fill="#B86F50" />
<rect x="6" y="34" width="1" height="1" fill="#B86F50" />
<rect x="7" y="34" width="1" height="1" fill="#B86F50" />
<rect x="8" y="34" width="1" height="1" fill="#B86F50" />
<rect x="9" y="34" width="1" height="1" fill="#B86F50" />
<rect x="10" y="34" width="1" height="1" fill="#B86F50" />
<rect x="11" y="34" width="1" height="1" fill="#B86F50" />
<rect x="12" y="34" width="1" height="1" fill="#B86F50" />
<rect x="13" y="34" width="1" height="1" fill="#B86F50" />
<rect x="14" y="34" width="1" height="1" fill="#B86F50" />
<rect x="15" y="34" width="1" height="1" fill="#B86F50" />
<rect x="16" y="34" width="1" height="1" fill="#B86F50" />
<rect x="17" y="34" width="1" height="1" fill="#B86F50" />
<rect x="18" y="34" width="1" height="1" fill="#B86F50" />
<rect x="19" y="34" width="1" height="1" fill="#B86F50" />
<rect x="20" y="34" width="1" height="1" fill="#B86F50" />
<rect x="21" y="34" width="1" height="1" fill="#B86F50" />
<rect x="22" y="34" width="1" height="1" fill="#B86F50" />
<rect x="23" y="34" width="1" height="1" fill="#181425" />
<rect x="0" y="35" width="1" height="1" fill="#B86F50" />
<rect x="1" y="35" width="1" height="1" fill="#B86F50" />
<rect x="2" y="35" width="1" height="1" fill="#B86F50" />
<rect x="3" y="35" width="1" height="1" fill="#B86F50" />
<rect x="4" y="35" width="1" height="1" fill="#B86F50" />
<rect x="5" y="35" width="1" height="1" fill="#B86F50" />
<rect x="6" y="35" width="1" height="1" fill="#B86F50" />
<rect x="7" y="35" width="1" height="1" fill="#B86F50" />
<rect x="8" y="35" width="1" height="1" fill="#B86F50" />
<rect x="9" y="35" width="1" height="1" fill="#B86F50" />
<rect x="10" y="35" width="1" height="1" fill="#B86F50" />
<rect x="11" y="35" width="1" height="1" fill="#B86F50" />
<rect x="12" y="35" width="1" height="1" fill="#B86F50" />
<rect x="13" y="35" width="1" height="1" fill="#B86F50" />
<rect x="14" y="35" width="1" height="1" fill="#B86F50" />
<rect x="15" y="35" width="1" height="1" fill="#B86F50" />
<rect x="16" y="35" width="1" height="1" fill="#B86F50" />
<rect x="17" y="35" width="1" height="1" fill="#B86F50" />
<rect x="18" y="35" width="1" height="1" fill="#B86F50" />
<rect x="19" y="35" width="1" height="1" fill="#B86F50" />
<rect x="20" y="35" width="1" height="1" fill="#B86F50" />
<rect x="21" y="35" width="1" height="1" fill="#B86F50" />
<rect x="22" y="35" width="1" height="1" fill="#B86F50" />
<rect x="23" y="35" width="1" height="1" fill="#181425" />
<rect x="0" y="36" width="1" height="1" fill="#B86F50" />
<rect x="1" y="36" width="1" height="1" fill="#B86F50" />
<rect x="2" y="36" width="1" height="1" fill="#B86F50" />
<rect x="3" y="36" width="1" height="1" fill="#B86F50" />
<rect x="4" y="36" width="1" height="1" fill="#B86F50" />
<rect x="5" y="36" width="1" height="1" fill="#B86F50" />
<rect x="6" y="36" width="1" height="1" fill="#B86F50" />
<rect x="7" y="36" width="1" height="1" fill="#B86F50" />
<rect x="8" y="36" width="1" height="1" fill="#B86F50" />
<rect x="9" y="36" width="1" height="1" fill="#B86F50" />
<rect x="10" y="36" width="1" height="1" fill="#B86F50" />
<rect x="11" y="36" width="1" height="1" fill="#B86F50" />
<rect x="12" y="36" width="1" height="1" fill="#B86F50" />
<rect x="13" y="36" width="1" height="1" fill="#B86F50" />
<rect x="14" y="36" width="1" height="1" fill="#B86F50" />
<rect x="15" y="36" width="1" height="1" fill="#B86F50" />
<rect x="16" y="36" width="1" height="1" fill="#B86F50" />
<rect x="17" y="36" width="1" height="1" fill="#B86F50" />
<rect x="18" y="36" width="1" height="1" fill="#B86F50" />
<rect x="19" y="36" width="1" height="1" fill="#B86F50" />
<rect x="20" y="36" width="1" height="1" fill="#B86F50" />
<rect x="21" y="36" width="1" height="1" fill="#B86F50" />
<rect x="22" y="36" width="1" height="1" fill="#B86F50" />
<rect x="23" y="36" width="1" height="1" fill="#181425" />
<rect x="0" y="37" width="1" height="1" fill="#B86F50" />
<rect x="1" y="37" width="1" height="1" fill="#B86F50" />
<rect x="2" y="37" width="1" height="1" fill="#B86F50" />
<rect x="3" y="37" width="1" height="1" fill="#B86F50" />
<rect x="4" y="37" width="1" height="1" fill="#B86F50" />
<rect x="5" y="37" width="1" height="1" fill="#B86F50" />
<rect x="6" y="37" width="1" height="1" fill="#B86F50" />
<rect x="7" y="37" width="1" height="1" fill="#B86F50" />
<rect x="8" y="37" width="1" height="1" fill="#B86F50" />
<rect x="9" y="37" width="1" height="1" fill="#B86F50" />
<rect x="10" y="37" width="1" height="1" fill="#B86F50" />
<rect x="11" y="37" width="1" height="1" fill="#B86F50" />
<rect x="12" y="37" width="1" height="1" fill="#B86F50" />
<rect x="13" y="37" width="1" height="1" fill="#B86F50" />
<rect x="14" y="37" width="1" height="1" fill="#B86F50" />
<rect x="15" y="37" width="1" height="1" fill="#B86F50" />
<rect x="16" y="37" width="1" height="1" fill="#B86F50" />
<rect x="17" y="37" width="1" height="1" fill="#B86F50" />
<rect x="18" y="37" width="1" height="1" fill="#B86F50" />
<rect x="19" y="37" width="1" height="1" fill="#B86F50" />
<rect x="20" y="37" width="1" height="1" fill="#B86F50" />
<rect x="21" y="37" width="1" height="1" fill="#B86F50" />
<rect x="22" y="37" width="1" height="1" fill="#B86F50" />
<rect x="23" y="37" width="1" height="1" fill="#181425" />
<rect x="0" y="38" width="1" height="1" fill="#B86F50" />
<rect x="1" y="38" width="1" height="1" fill="#B86F50" />
<rect x="2" y="38" width="1" height="1" fill="#B86F50" />
<rect x="3" y="38" width="1" height="1" fill="#B86F50" />
<rect x="4" y="38" width="1" height="1" fill="#B86F50" />
<rect x="5" y="38" width="1" height="1" fill="#B86F50" />
<rect x="6" y="38" width="1" height="1" fill="#B86F50" />
<rect x="7" y="38" width="1" height="1" fill="#B86F50" />
<rect x="8" y="38" width="1" height="1" fill="#B86F50" />
<rect x="9" y="38" width="1" height="1" fill="#B86F50" />
<rect x="10" y="38" width="1" height="1" fill="#B86F50" />
<rect x="11" y="38" width="1" height="1" fill="#B86F50" />
<rect x="12" y="38" width="1" height="1" fill="#B86F50" />
<rect x="13" y="38" width="1" height="1" fill="#B86F50" />
<rect x="14" y="38" width="1" height="1" fill="#B86F50" />
<rect x="15" y="38" width="1" height="1" fill="#B86F50" />
<rect x="16" y="38" width="1" height="1" fill="#B86F50" />
<rect x="17" y="38" width="1" height="1" fill="#B86F50" />
<rect x="18" y="38" width="1" height="1" fill="#B86F50" />
<rect x="19" y="38" width="1" height="1" fill="#B86F50" />
<rect x="20" y="38" width="1" height="1" fill="#B86F50" />
<rect x="21" y="38" width="1" height="1" fill="#B86F50" />
<rect x="22" y="38" width="1" height="1" fill="#B86F50" />
<rect x="23" y="38" width="1" height="1" fill="#181425" />
<rect x="0" y="39" width="1" height="1" fill="#B86F50" />
<rect x="1" y="39" width="1" height="1" fill="#B86F50" />
<rect x="2" y="39" width="1" height="1" fill="#B86F50" />
<rect x="3" y="39" width="1" height="1" fill="#B86F50" />
<rect x="4" y="39" width="1" height="1" fill="#B86F50" />
<rect x="5" y="39" width="1" height="1" fill="#B86F50" />
<rect x="6" y="39" width="1" height="1" fill="#B86F50" />
<rect x="7" y="39" width="1" height="1" fill="#B86F50" />
<rect x="8" y="39" width="1" height="1" fill="#B86F50" />
<rect x="9" y="39" width="1" height="1" fill="#B86F50" />
<rect x="10" y="39" width="1" height="1" fill="#B86F50" />
<rect x="11" y="39" width="1" height="1" fill="#B86F50" />
<rect x="12" y="39" width="1" height="1" fill="#B86F50" />
<rect x="13" y="39" width="1" height="1" fill="#B86F50" />
<rect x="14" y="39" width="1" height="1" fill="#B86F50" />
<rect x="15" y="39" width="1" height="1" fill="#B86F50" />
<rect x="16" y="39" width="1" height="1" fill="#B86F50" />
<rect x="17" y="39" width="1" height="1" fill="#B86F50" />
<rect x="18" y="39" width="1" height="1" fill="#B86F50" />
<rect x="19" y="39" width="1" height="1" fill="#B86F50" />
<rect x="20" y="39" width="1" height="1" fill="#B86F50" />
<rect x="21" y="39" width="1" height="1" fill="#B86F50" />
<rect x="22" y="39" width="1" height="1" fill="#B86F50" />
<rect x="23" y="39" width="1" height="1" fill="#181425" />
<rect x="0" y="40" width="1" height="1" fill="#B86F50" />
<rect x="1" y="40" width="1" height="1" fill="#B86F50" />
<rect x="2" y="40" width="1" height="1" fill="#B86F50" />
<rect x="3" y="40" width="1" height="1" fill="#B86F50" />
<rect x="4" y="40" width="1" height="1" fill="#B86F50" />
<rect x="5" y="40" width="1" height="1" fill="#B86F50" />
<rect x="6" y="40" width="1" height="1" fill="#B86F50" />
<rect x="7" y="40" width="1" height="1" fill="#B86F50" />
<rect x="8" y="40" width="1" height="1" fill="#B86F50" />
<rect x="9" y="40" width="1" height="1" fill="#B86F50" />
<rect x="10" y="40" width="1" height="1" fill="#B86F50" />
<rect x="11" y="40" width="1" height="1" fill="#B86F50" />
<rect x="12" y="40" width="1" height="1" fill="#B86F50" />
<rect x="13" y="40" width="1" height="1" fill="#B86F50" />
<rect x="14" y="40" width="1" height="1" fill="#B86F50" />
<rect x="15" y="40" width="1" height="1" fill="#B86F50" />
<rect x="16" y="40" width="1" height="1" fill="#B86F50" />
<rect x="17" y="40" width="1" height="1" fill="#B86F50" />
<rect x="18" y="40" width="1" height="1" fill="#B86F50" />
<rect x="19" y="40" width="1" height="1" fill="#B86F50" />
<rect x="20" y="40" width="1" height="1" fill="#B86F50" />
<rect x="21" y="40" width="1" height="1" fill="#B86F50" />
<rect x="22" y="40" width="1" height="1" fill="#B86F50" />
<rect x="23" y="40" width="1" height="1" fill="#181425" />
<rect x="0" y="41" width="1" height="1" fill="#181425" />
<rect x="1" y="41" width="1" height="1" fill="#181425" />
<rect x="2" y="41" width="1" height="1" fill="#181425" />
<rect x="3" y="41" width="1" height="1" fill="#181425" />
<rect x="4" y="41" width="1" height="1" fill="#181425" />
<rect x="5" y="41" width="1" height="1" fill="#181425" />
<rect x="6" y="41" width="1" height="1" fill="#181425" />
<rect x="7" y="41" width="1" height="1" fill="#181425" />
<rect x="8" y="41" width="1" height="1" fill="#181425" />
<rect x="9" y="41" width="1" height="1" fill="#181425" />
<rect x="10" y="41" width="1" height="1" fill="#181425" />
<rect x="11" y="41" width="1" height="1" fill="#181425" />
<rect x="12" y="41" width="1" height="1" fill="#181425" />
<rect x="13" y="41" width="1" height="1" fill="#181425" />
<rect x="14" y="41" width="1" height="1" fill="#181425" />
<rect x="15" y="41" width="1" height="1" fill="#181425" />
<rect x="16" y="41" width="1" height="1" fill="#181425" />
<rect x="17" y="41" width="1" height="1" fill="#181425" />
<rect x="18" y="41" width="1" height="1" fill="#181425" />
<rect x="19" y="41" width="1" height="1" fill="#181425" />
<rect x="20" y="41" width="1" height="1" fill="#181425" />
<rect x="21" y="41" width="1" height="1" fill="#181425" />
<rect x="22" y="41" width="1" height="1" fill="#181425" />
<rect x="23" y="41" width="1" height="1" fill="#181425" />
</svg>