<?xml version="1.0" encoding="UTF-8" ?>
<svg version="1.1" width="48" height="48" xmlns="http://www.w3.org/2000/svg" shape-rendering="crispEdges">
<rect x="18" y="3" width="3" height="3" fill="#181425" />
<rect x="21" y="3" width="3" height="3" fill="#181425" />
<rect x="24" y="3" width="3" height="3" fill="#181425" />
<rect x="27" y="3" width="3" height="3" fill="#181425" />
<rect x="12" y="6" width="3" height="3" fill="#181425" />
<rect x="15" y="6" width="3" height="3" fill="#181425" />
<rect x="18" y="6" width="3" height="3" fill="#E4A672" />
<rect x="21" y="6" width="3" height="3" fill="#B86F50" />
<rect x="24" y="6" width="3" height="3" fill="#B86F50" />
<rect x="27" y="6" width="3" height="3" fill="#E4A672" />
<rect x="30" y="6" width="3" height="3" fill="#181425" />
<rect x="33" y="6" width="3" height="3" fill="#181425" />
<rect x="9" y="9" width="3" height="3" fill="#181425" />
<rect x="12" y="9" width="3" height="3" fill="#733E39" />
<rect x="15" y="9" width="3" height="3" fill="#B86F50" />
<rect x="18" y="9" width="3" height="3" fill="#E4A672" />
<rect x="21" y="9" width="3" height="3" fill="#E4A672" />
<rect x="24" y="9" width="3" height="3" fill="#B86F50" />
<rect x="27" y="9" width="3" height="3" fill="#E4A672" />
<rect x="30" y="9" width="3" height="3" fill="#B86F50" />
<rect x="33" y="9" width="3" height="3" fill="#E4A672" />
<rect x="36" y="9" width="3" height="3" fill="#181425" />
<rect x="9" y="12" width="3" height="3" fill="#181425" />
<rect x="12" y="12" width="3" height="3" fill="#3E2731" />
<rect x="15" y="12" width="3" height="3" fill="#B86F50" />
<rect x="18" y="12" width="3" height="3" fill="#E4A672" />
<rect x="21" y="12" width="3" height="3" fill="#E4A672" />
<rect x="24" y="12" width="3" height="3" fill="#E4A672" />
<rect x="27" y="12" width="3" height="3" fill="#E4A672" />
<rect x="30" y="12" width="3" height="3" fill="#B86F50" />
<rect x="33" y="12" width="3" height="3" fill="#E4A672" />
<rect x="36" y="12" width="3" height="3" fill="#181425" />
<rect x="12" y="15" width="3" height="3" fill="#181425" />
<rect x="15" y="15" width="3" height="3" fill="#3E2731" />
<rect x="18" y="15" width="3" height="3" fill="#B86F50" />
<rect x="21" y="15" width="3" height="3" fill="#E4A672" />
<rect x="24" y="15" width="3" height="3" fill="#E4A672" />
<rect x="27" y="15" width="3" height="3" fill="#B86F50" />
<rect x="30" y="15" width="3" height="3" fill="#E4A672" />
<rect x="33" y="15" width="3" height="3" fill="#181425" />
<rect x="15" y="18" width="3" height="3" fill="#181425" />
<rect x="18" y="18" width="3" height="3" fill="#733E39" />
<rect x="21" y="18" width="3" height="3" fill="#733E39" />
<rect x="24" y="18" width="3" height="3" fill="#3E2731" />
<rect x="27" y="18" width="3" height="3" fill="#3E2731" />
<rect x="30" y="18" width="3" height="3" fill="#181425" />
<rect x="9" y="21" width="3" height="3" fill="#181425" />
<rect x="12" y="21" width="3" height="3" fill="#181425" />
<rect x="15" y="21" width="3" height="3" fill="#E4A672" />
<rect x="18" y="21" width="3" height="3" fill="#E4A672" />
<rect x="21" y="21" width="3" height="3" fill="#E4A672" />
<rect x="24" y="21" width="3" height="3" fill="#E4A672" />
<rect x="27" y="21" width="3" height="3" fill="#E4A672" />
<rect x="30" y="21" width="3" height="3" fill="#E4A672" />
<rect x="33" y="21" width="3" height="3" fill="#181425" />
<rect x="36" y="21" width="3" height="3" fill="#181425" />
<rect x="6" y="24" width="3" height="3" fill="#181425" />
<rect x="9" y="24" width="3" height="3" fill="#E4A672" />
<rect x="12" y="24" width="3" height="3" fill="#E4A672" />
<rect x="15" y="24" width="3" height="3" fill="#E4A672" />
<rect x="18" y="24" width="3" height="3" fill="#E4A672" />
<rect x="21" y="24" width="3" height="3" fill="#E4A672" />
<rect x="24" y="24" width="3" height="3" fill="#E4A672" />
<rect x="27" y="24" width="3" height="3" fill="#E4A672" />
<rect x="30" y="24" width="3" height="3" fill="#E4A672" />
<rect x="33" y="24" width="3" height="3" fill="#E4A672" />
<rect x="36" y="24" width="3" height="3" fill="#E4A672" />
<rect x="39" y="24" width="3" height="3" fill="#181425" />
<rect x="3" y="27" width="3" height="3" fill="#181425" />
<rect x="6" y="27" width="3" height="3" fill="#E4A672" />
<rect x="9" y="27" width="3" height="3" fill="#E4A672" />
<rect x="12" y="27" width="3" height="3" fill="#E4A672" />
<rect x="15" y="27" width="3" height="3" fill="#E4A672" />
<rect x="18" y="27" width="3" height="3" fill="#E4A672" />
<rect x="21" y="27" width="3" height="3" fill="#E4A672" />
<rect x="24" y="27" width="3" height="3" fill="#E4A672" />
<rect x="27" y="27" width="3" height="3" fill="#E4A672" />
<rect x="30" y="27" width="3" height="3" fill="#E4A672" />
<rect x="33" y="27" width="3" height="3" fill="#E4A672" />
<rect x="36" y="27" width="3" height="3" fill="#181425" />
<rect x="39" y="27" width="3" height="3" fill="#181425" />
<rect x="42" y="27" width="3" height="3" fill="#181425" />
<rect x="3" y="30" width="3" height="3" fill="#181425" />
<rect x="6" y="30" width="3" height="3" fill="#E4A672" />
<rect x="9" y="30" width="3" height="3" fill="#E4A672" />
<rect x="12" y="30" width="3" height="3" fill="#B86F50" />
<rect x="15" y="30" width="3" height="3" fill="#E4A672" />
<rect x="18" y="30" width="3" height="3" fill="#E4A672" />
<rect x="21" y="30" width="3" height="3" fill="#E4A672" />
<rect x="24" y="30" width="3" height="3" fill="#E4A672" />
<rect x="27" y="30" width="3" height="3" fill="#E4A672" />
<rect x="30" y="30" width="3" height="3" fill="#E4A672" />
<rect x="33" y="30" width="3" height="3" fill="#181425" />
<rect x="36" y="30" width="3" height="3" fill="#FEAE34" />
<rect x="39" y="30" width="3" height="3" fill="#FEAE34" />
<rect x="42" y="30" width="3" height="3" fill="#FEAE34" />
<rect x="45" y="30" width="3" height="3" fill="#181425" />
<rect x="3" y="33" width="3" height="3" fill="#181425" />
<rect x="6" y="33" width="3" height="3" fill="#B86F50" />
<rect x="9" y="33" width="3" height="3" fill="#E4A672" />
<rect x="12" y="33" width="3" height="3" fill="#B86F50" />
<rect x="15" y="33" width="3" height="3" fill="#E4A672" />
<rect x="18" y="33" width="3" height="3" fill="#E4A672" />
<rect x="21" y="33" width="3" height="3" fill="#E4A672" />
<rect x="24" y="33" width="3" height="3" fill="#E4A672" />
<rect x="27" y="33" width="3" height="3" fill="#E4A672" />
<rect x="30" y="33" width="3" height="3" fill="#E4A672" />
<rect x="33" y="33" width="3" height="3" fill="#181425" />
<rect x="36" y="33" width="3" height="3" fill="#FEE761" />
<rect x="39" y="33" width="3" height="3" fill="#FEE761" />
<rect x="42" y="33" width="3" height="3" fill="#FEE761" />
<rect x="45" y="33" width="3" height="3" fill="#181425" />
<rect x="3" y="36" width="3" height="3" fill="#181425" />
<rect x="6" y="36" width="3" height="3" fill="#B86F50" />
<rect x="9" y="36" width="3" height="3" fill="#E4A672" />
<rect x="12" y="36" width="3" height="3" fill="#E4A672" />
<rect x="15" y="36" width="3" height="3" fill="#B86F50" />
<rect x="18" y="36" width="3" height="3" fill="#E4A672" />
<rect x="21" y="36" width="3" height="3" fill="#E4A672" />
<rect x="24" y="36" width="3" height="3" fill="#E4A672" />
<rect x="27" y="36" width="3" height="3" fill="#E4A672" />
<rect x="30" y="36" width="3" height="3" fill="#181425" />
<rect x="33" y="36" width="3" height="3" fill="#FEAE34" />
<rect x="36" y="36" width="3" height="3" fill="#FEAE34" />
<rect x="39" y="36" width="3" height="3" fill="#FEAE34" />
<rect x="42" y="36" width="3" height="3" fill="#181425" />
<rect x="3" y="39" width="3" height="3" fill="#181425" />
<rect x="6" y="39" width="3" height="3" fill="#B86F50" />
<rect x="9" y="39" width="3" height="3" fill="#B86F50" />
<rect x="12" y="39" width="3" height="3" fill="#E4A672" />
<rect x="15" y="39" width="3" height="3" fill="#E4A672" />
<rect x="18" y="39" width="3" height="3" fill="#E4A672" />
<rect x="21" y="39" width="3" height="3" fill="#E4A672" />
<rect x="24" y="39" width="3" height="3" fill="#E4A672" />
<rect x="27" y="39" width="3" height="3" fill="#E4A672" />
<rect x="30" y="39" width="3" height="3" fill="#E4A672" />
<rect x="33" y="39" width="3" height="3" fill="#181425" />
<rect x="36" y="39" width="3" height="3" fill="#FEE761" />
<rect x="39" y="39" width="3" height="3" fill="#FEE761" />
<rect x="42" y="39" width="3" height="3" fill="#FEE761" />
<rect x="45" y="39" width="3" height="3" fill="#181425" />
<rect x="6" y="42" width="3" height="3" fill="#181425" />
<rect x="9" y="42" width="3" height="3" fill="#B86F50" />
<rect x="12" y="42" width="3" height="3" fill="#B86F50" />
<rect x="15" y="42" width="3" height="3" fill="#B86F50" />
<rect x="18" y="42" width="3" height="3" fill="#E4A672" />
<rect x="21" y="42" width="3" height="3" fill="#E4A672" />
<rect x="24" y="42" width="3" height="3" fill="#E4A672" />
<rect x="27" y="42" width="3" height="3" fill="#E4A672" />
<rect x="30" y="42" width="3" height="3" fill="#E4A672" />
<rect x="33" y="42" width="3" height="3" fill="#181425" />
<rect x="36" y="42" width="3" height="3" fill="#FEAE34" />
<rect x="39" y="42" width="3" height="3" fill="#FEAE34" />
<rect x="42" y="42" width="3" height="3" fill="#FEAE34" />
<rect x="45" y="42" width="3" height="3" fill="#181425" />
<rect x="9" y="45" width="3" height="3" fill="#181425" />
<rect x="12" y="45" width="3" height="3" fill="#181425" />
<rect x="15" y="45" width="3" height="3" fill="#181425" />
<rect x="18" y="45" width="3" height="3" fill="#181425" />
<rect x="21" y="45" width="3" height="3" fill="#181425" />
<rect x="24" y="45" width="3" height="3" fill="#181425" />
<rect x="27" y="45" width="3" height="3" fill="#181425" />
<rect x="30" y="45" width="3" height="3" fill="#181425" />
<rect x="33" y="45" width="3" height="3" fill="#181425" />
<rect x="36" y="45" width="3" height="3" fill="#181425" />
<rect x="39" y="45" width="3" height="3" fill="#181425" />
<rect x="42" y="45" width="3" height="3" fill="#181425" />
<rect x="45" y="45" width="3" height="3" fill="#181425" />
</svg>